<svg width="80" height="80" viewBox="0 0 80 80" fill="none" xmlns="http://www.w3.org/2000/svg">
<path d="M0 40C0 17.9086 17.9086 0 40 0C62.0914 0 80 17.9086 80 40C80 62.0914 62.0914 80 40 80C17.9086 80 0 62.0914 0 40Z" fill="#4A72FF"/>
<path d="M40.0106 57.2414C49.5269 57.2414 57.2414 49.527 57.2414 40.0107C57.2414 30.4944 49.5269 22.7799 40.0106 22.7799C30.4943 22.7799 22.7798 30.4944 22.7798 40.0107C22.7798 49.527 30.4943 57.2414 40.0106 57.2414Z" stroke="white" stroke-width="1.93253" stroke-miterlimit="10" stroke-linecap="round" stroke-linejoin="round"/>
<path d="M40.0105 52.9338C47.1477 52.9338 52.9335 47.1479 52.9335 40.0107C52.9335 32.8735 47.1477 27.0876 40.0105 27.0876C32.8733 27.0876 27.0874 32.8735 27.0874 40.0107C27.0874 47.1479 32.8733 52.9338 40.0105 52.9338Z" stroke="white" stroke-width="1.93253" stroke-miterlimit="10"/>
<path d="M40.6998 39.0342V35.5689C41.4656 35.7029 42.1739 35.9901 42.7866 36.4496C42.9015 36.5262 43.0546 36.5836 43.2078 36.5836C43.6864 36.5836 44.0693 36.2199 44.0693 35.7412C44.0693 35.5498 43.9927 35.3583 43.8396 35.2052C42.9589 34.4585 41.8485 34.0373 40.6806 33.9607V32.812C40.6806 32.4865 40.4126 32.2185 40.068 32.2185H40.0488C39.7042 32.2185 39.417 32.4865 39.417 32.812V33.9416C37.1387 34.0947 35.588 35.4732 35.588 37.292C35.588 39.532 37.5408 40.1447 39.417 40.6424V44.5864C38.4215 44.4523 37.5025 44.0503 36.7367 43.4376C36.5835 43.3228 36.4112 43.2653 36.2389 43.2653C35.7794 43.3036 35.4156 43.6674 35.4156 44.1269C35.4156 44.3183 35.4922 44.5098 35.6454 44.6629C36.6984 45.5819 38.0386 46.0988 39.4362 46.1563V47.2476V47.2667C39.4553 47.6113 39.7425 47.8602 40.0871 47.8411C40.4317 47.8411 40.6998 47.573 40.6998 47.2476V46.1371C43.4567 45.9648 44.5671 44.3183 44.5671 42.5953C44.5862 40.2212 42.576 39.5129 40.6998 39.0342ZM39.4362 38.7088C38.3257 38.4024 37.4642 38.077 37.4642 37.158C37.4642 36.239 38.2492 35.5881 39.417 35.4924V38.7088H39.4362ZM40.6998 44.5672V40.9871C41.8485 41.2934 42.7292 41.7337 42.7292 42.7484C42.7292 43.5142 42.2122 44.3949 40.6998 44.5672Z" fill="white"/>
</svg>
