<svg width="32" height="32" viewBox="0 0 32 32" fill="none" xmlns="http://www.w3.org/2000/svg">
<path fill-rule="evenodd" clip-rule="evenodd" d="M0 16C0 7.16344 7.16344 0 16 0C24.8366 0 32 7.16344 32 16C32 24.8366 24.8366 32 16 32C7.16344 32 0 24.8366 0 16Z" fill="#402613"/>
<path fill-rule="evenodd" clip-rule="evenodd" d="M16 0C7.16344 0 0 7.16344 0 16C0 24.8366 7.16344 32 16 32C24.8366 32 32 24.8366 32 16C32 7.16344 24.8366 0 16 0ZM16.2211 13.5582L16.1876 13.0046C16.0868 11.5697 16.971 10.259 18.3699 9.75059C18.8848 9.56981 19.7577 9.54721 20.3285 9.70539C20.5523 9.77318 20.9776 9.99916 21.2798 10.2025L21.8282 10.5754L22.4325 10.3833C22.7683 10.2816 23.2159 10.1121 23.4174 9.99916C23.6076 9.89747 23.7755 9.84097 23.7755 9.87487C23.7755 10.0669 23.3614 10.7223 23.0145 11.0838C22.5444 11.5923 22.6787 11.6375 23.63 11.2985C24.2008 11.1064 24.212 11.1064 24.1001 11.3211C24.0329 11.4341 23.686 11.8295 23.3167 12.1911C22.6899 12.8125 22.6563 12.8803 22.6563 13.4001C22.6563 14.2023 22.2758 15.8745 21.8953 16.7897C21.1902 18.5071 19.6794 20.281 18.1685 21.1736C16.0421 22.4277 13.2106 22.7441 10.8268 22.0097C10.0321 21.7611 8.66676 21.1284 8.66676 21.0154C8.66676 20.9815 9.08085 20.9363 9.58448 20.925C10.6365 20.9024 11.6885 20.6086 12.5838 20.0889L13.1882 19.7273L12.4943 19.4901C11.5094 19.1511 10.6253 18.3715 10.4015 17.6371C10.3343 17.3998 10.3567 17.3885 10.9834 17.3885L11.6326 17.3772L11.0842 17.1173C10.435 16.7897 9.84188 16.236 9.5509 15.6711C9.33826 15.2643 9.06966 14.2362 9.148 14.1571C9.17038 14.1232 9.40541 14.191 9.67401 14.2814C10.4462 14.5638 10.547 14.496 10.0993 14.0215C9.25992 13.1628 9.00251 11.886 9.40541 10.6771L9.59567 10.1347L10.3343 10.8692C11.8452 12.3493 13.6247 13.2306 15.6616 13.4905L16.2211 13.5582Z" fill="white"/>
</svg>
